<?xml version="1.0" encoding="UTF-8" standalone="no"?>
<!-- Generator: Adobe Illustrator 12.0.0, SVG Export Plug-In . SVG Version: 6.00 Build 51448)  -->
<svg
   xmlns:dc="http://purl.org/dc/elements/1.1/"
   xmlns:cc="http://web.resource.org/cc/"
   xmlns:rdf="http://www.w3.org/1999/02/22-rdf-syntax-ns#"
   xmlns:svg="http://www.w3.org/2000/svg"
   xmlns="http://www.w3.org/2000/svg"
   xmlns:sodipodi="http://sodipodi.sourceforge.net/DTD/sodipodi-0.dtd"
   xmlns:inkscape="http://www.inkscape.org/namespaces/inkscape"
   version="1.1"
   id="Layer_1"
   width="192.756"
   height="192.756"
   viewBox="0 0 192.756 192.756"
   overflow="visible"
   enable-background="new 0 0 192.756 192.756"
   xml:space="preserve"
   sodipodi:version="0.32"
   inkscape:version="0.44.1"
   sodipodi:docname="Tour de France logo.svg"
   sodipodi:docbase="C:\Documents and Settings\Sigurd\Mine dokumenter\Mine bilder"><metadata
   id="metadata1934"><rdf:RDF><cc:Work
       rdf:about=""><dc:format>image/svg+xml</dc:format><dc:type
         rdf:resource="http://purl.org/dc/dcmitype/StillImage" /></cc:Work></rdf:RDF></metadata><defs
   id="defs1932" /><sodipodi:namedview
   inkscape:window-height="576"
   inkscape:window-width="853"
   inkscape:pageshadow="2"
   inkscape:pageopacity="0.0"
   guidetolerance="10.0"
   gridtolerance="10.0"
   objecttolerance="10.0"
   borderopacity="1.0"
   bordercolor="#666666"
   pagecolor="#ffffff"
   id="base"
   inkscape:zoom="1.9610285"
   inkscape:cx="96.377998"
   inkscape:cy="96.377998"
   inkscape:window-x="154"
   inkscape:window-y="154"
   inkscape:current-layer="Layer_1" />
<g
   id="g1923">
	
	<path
   fill-rule="evenodd"
   clip-rule="evenodd"
   fill="#FBAD28"
   d="M145.665,104.625c3.184,2.025,6.945,3.473,11.286,3.762   c4.34,0.289,8.681,0,12.732-1.158c4.05-1.445,7.522-3.762,10.127-6.365c2.604-2.894,4.052-6.367,4.341-10.418   c0.29-3.473,0-7.234-1.446-10.996c-1.158-3.762-2.895-6.945-5.499-9.839c-2.604-2.604-5.208-4.341-8.102-5.208   c-4.92-1.447-9.839-1.158-15.048,0.29c-4.63,1.447-8.103,3.473-10.707,6.077c-2.604,3.472-4.629,6.944-5.497,10.417   c-0.868,3.761-0.579,8.391,0.868,13.311C139.878,98.838,142.193,102.021,145.665,104.625L145.665,104.625z"
   id="path1927" />
	<path
   fill-rule="evenodd"
   clip-rule="evenodd"
   d="M87.213,74.53c-2.025,0.482-4.051,0.964-6.077,1.447   c-2.315,0.868-4.051,1.736-5.498,2.604c-2.604,2.025-4.63,4.34-6.077,7.234c-1.446,2.893-2.025,6.076-2.025,9.26   c0,3.183,0.868,6.077,2.315,8.682c1.446,2.893,3.762,4.918,6.655,6.365c3.184,1.736,6.656,2.314,10.128,1.736   c3.761-0.289,6.945-1.736,9.549-4.342c2.893-2.604,4.629-6.365,4.919-10.706c0.289-4.341-0.868-8.103-3.473-11.286   c-1.736-2.315-3.762-3.762-5.788-4.34c-2.025-0.579-4.051-0.579-6.656,0c-2.025,0.289-4.051,1.157-5.787,2.604   c-0.823,0.771-1.498,1.542-2.026,2.314c-0.192-0.097-0.385-0.193-0.578-0.289c0.289-2.604,1.736-4.92,4.34-6.656   c2.314-1.446,5.209-2.314,8.392-2.604c3.762-0.29,6.945,0.868,10.128,3.183c2.604,2.315,4.92,5.208,6.366,8.681   c1.447,3.762,2.026,7.524,1.736,11.285c-0.289,4.053-1.736,7.523-3.762,10.707c-2.604,3.762-6.076,6.656-10.417,8.682   c-6.077,2.604-12.443,2.314-18.81-0.869c-6.655-3.182-10.707-7.813-12.731-14.467c-1.447-5.499-1.158-10.708,0.868-16.206   c2.314-5.498,5.787-9.549,10.707-12.153c2.604-1.447,5.208-2.025,7.813-2.025C82.583,73.373,84.608,73.662,87.213,74.53   L87.213,74.53z M104.575,57.168c0.868,3.28,1.736,6.56,2.604,9.838c0.868,3.763,2.025,6.656,3.473,9.26   c0.096-0.193,0.192-0.386,0.289-0.579c0.674-5.498,1.35-10.996,2.025-16.494c0.192,0,0.385,0,0.578,0   c2.025,6.077,3.184,10.997,3.473,14.18c0.289,4.629-0.868,7.813-3.473,9.838c-1.157,0.868-2.604,1.157-4.051,0.579   c-1.446-0.29-2.894-1.158-3.762-2.604c-1.447-2.895-2.315-5.788-2.604-8.971C102.839,69.033,103.417,63.824,104.575,57.168   L104.575,57.168z M83.161,97.391c1.254,0.939,2.343,1.354,3.423,1.01c0.669-0.894,2.015-3.538,0.049-4.193   c-0.868-0.579-1.736-0.579-2.604,0C83.161,95.076,82.872,95.944,83.161,97.391L83.161,97.391z M114.992,125.459   c0.578,2.314,1.157,4.631,1.736,6.945c1.061,4.822,2.122,9.645,3.183,14.469c-0.192,0.096-0.386,0.191-0.578,0.289   c-1.544-2.123-3.087-4.244-4.631-6.365c-1.061-2.799-2.121-5.596-3.183-8.393c-0.867,3.762-2.025,8.682-4.051,14.18   c-0.193,0.289-0.387,0.578-0.579,0.867c-0.193,0.289-0.386,0.578-0.578,0.869c-1.736-0.285-3.474-1.057-5.209-2.895   c0.097,0,0.192,0,0.289,0c-0.193-7.428-0.386-14.854-0.579-22.281c1.062,2.797,2.122,5.594,3.184,8.393   c0.868-3.184,1.447-5.5,2.315-7.234c0.868-2.316,2.025-3.473,3.761-3.473c1.158,0,2.025,0.289,2.895,1.156   C113.834,122.855,114.413,124.012,114.992,125.459L114.992,125.459z M138.721,113.885c-0.965,1.445-1.929,2.893-2.894,4.34   c-1.062,2.123-2.122,4.244-3.184,6.367c-0.579,1.445-0.868,2.893-1.157,4.918c-0.29,2.316,0,3.764,0.289,4.631   c0.579,0.869,1.447,1.736,2.604,2.025c1.64,0.385,3.279,0.771,4.92,1.158c1.542,0.289,3.086,0.578,4.63,0.867   c0.096,0.193,0.192,0.385,0.289,0.58c-2.123,0.771-4.245,1.543-6.366,2.314c-2.604,0.578-4.63,0.578-6.656,0   c-2.314-0.869-4.051-2.025-5.497-4.051c-2.025-2.895-2.315-6.078-1.157-9.262c2.025-6.076,5.497-10.705,10.417-13.6   c0.868-0.578,1.446-0.867,2.025-0.867C137.273,113.307,137.853,113.596,138.721,113.885L138.721,113.885z M157.529,109.543   c-2.03,1.729-3.762,4.631-4.63,8.393c-0.097,0.387-0.193,0.771-0.289,1.158c0.192,0.385,0.385,0.771,0.579,1.156   c0.096-0.096,0.192-0.193,0.289-0.289c1.736-2.025,2.894-3.762,3.762-5.498c0.867-2.025,1.446-3.762,1.736-5.787   C158.75,108.902,157.902,109.227,157.529,109.543L157.529,109.543z M162.738,112.438c-1.158,2.605-2.895,4.92-4.92,7.234   c-0.675,0.578-1.351,1.158-2.025,1.736c-1.157,0.869-2.025,1.158-2.894,0.869c-0.193-0.195-0.386-0.387-0.578-0.58   c-0.098,1.158-0.193,2.314-0.29,3.473c0,3.184,0.579,5.498,1.736,6.945c0.579,0.867,1.158,1.158,2.025,1.158   c1.447,0.289,3.184,0,5.209-0.869c3.086-1.93,6.173-3.857,9.26-5.787c1.929-1.352,3.857-2.701,5.787-4.051   c0.193,0.096,0.386,0.191,0.579,0.289c-4.63,5.787-8.392,10.127-11.575,12.732c-1.351,0.771-2.7,1.543-4.051,2.314   c-2.895,1.158-5.209,1.447-7.234,1.158c-2.604-0.58-4.341-1.736-5.787-3.762c-1.158-2.025-2.026-3.762-2.315-5.498   c-0.868-3.184-0.868-6.367-0.579-9.26c0.29-2.895,1.158-5.789,2.895-8.971c1.446-2.316,2.894-4.342,4.919-5.787   c2.026-1.736,4.341-2.605,6.655-2.895c1.157,0,2.025,0.289,2.894,0.578c0.868,0.869,1.158,1.736,1.447,2.605   C164.185,108.098,163.896,110.123,162.738,112.438L162.738,112.438z M51.62,139.061c-0.964,7.908-1.929,15.818-2.894,23.729   c-1.446-3.764-2.314-6.656-2.604-8.393c-0.868-8.393-1.157-14.758-0.289-19.387c0.579-3.473,2.025-5.5,4.63-6.367   c2.604-0.869,4.919,0,6.945,2.604c3.472,3.473,4.919,7.234,4.34,11.285c-0.289,3.184-1.736,6.367-4.05,9.84   c0.192,0.193,0.385,0.385,0.578,0.578c3.666,2.701,7.331,5.402,10.996,8.104c-0.097,0.191-0.193,0.385-0.289,0.578   c-2.701-0.869-5.401-1.736-8.103-2.605c-2.893-0.867-5.208-2.314-7.234-4.051c-0.289-0.289-0.868-0.578-1.157-1.447   c-0.29-0.867-0.29-2.025,0-3.182c0.579-1.158,1.158-2.316,1.736-3.473c1.446-4.342,0.868-7.813-2.026-10.418L51.62,139.061   L51.62,139.061z M87.791,130.379c-0.29-0.58-0.578-1.158-0.868-1.736c-3.183,5.498-5.498,12.154-6.945,19.967   c2.315-0.869,4.051-2.605,4.919-5.209c0.193-1.352,0.386-2.701,0.579-4.051c0-1.254,0-2.51,0-3.762   c0.386-0.484,0.771-0.965,1.157-1.447c0.482-0.193,0.964-0.387,1.447-0.578c0.869,0.289,1.736,0.578,2.025,1.447   c1.736,3.857,3.473,7.715,5.209,11.574c-0.096,0.096-0.193,0.191-0.289,0.289c-1.447-1.641-2.895-3.279-4.341-4.92   c0,0.289,0,0.578,0,0.869c-0.29,3.182-1.447,5.787-3.472,8.391c-2.026,2.605-4.341,4.34-7.235,5.787   c-2.604,0.68-5.209,0.584-7.813-0.289c-1.157-1.447-1.157-3.762,0-6.943c2.026-5.209,4.34-10.129,6.945-14.469   c1.158-2.316,2.894-4.92,5.499-8.104c0.868-1.158,2.025-1.447,2.894-1.158c0.579,0.291,0.868,0.58,1.157,1.447   c-0.097,0.482-0.193,0.965-0.289,1.447L87.791,130.379L87.791,130.379z M158.397,47.908c0,2.026,0.868,3.184,2.314,4.052   c1.447,0.579,2.895,0.579,3.763-0.289c2.314-2.026,2.314-4.052,0.289-6.367C163.043,43.583,157.777,45.427,158.397,47.908   L158.397,47.908z M149.717,45.015c3.762,1.736,5.498,3.762,5.787,5.788c0,1.736-1.157,3.472-3.183,5.498   c-2.123,1.543-4.245,3.087-6.367,4.63c-0.771,0.675-1.543,1.351-2.314,2.026c4.244,3.473,8.488,6.945,12.732,10.417   c-0.097,0.29-0.193,0.579-0.29,0.868c-3.954-1.833-7.909-3.665-11.863-5.498c-3.184-1.446-5.209-2.894-6.077-4.34   c-0.578-1.447-0.578-2.604,0.29-3.473c2.604-2.701,5.208-5.401,7.813-8.102c0.289-0.289,0.578-0.579,0.868-0.868   c-0.579-0.096-1.158-0.193-1.736-0.289c-1.736-0.096-3.472-0.193-5.208-0.29c-2.509,0.483-5.017,0.965-7.524,1.447   c-0.868,0.29-1.736,0.579-2.604,0.868c-0.193,0.193-0.386,0.386-0.579,0.579c-0.192,2.991-0.385,5.981-0.578,8.97   c-1.158,14.469-2.894,27.491-5.498,39.355c-0.676,1.254-1.351,2.508-2.025,3.762c0-7.234,0-14.469,0-21.703   c0-7.234,0-14.468,0-21.703c-0.097-3.182-0.192-6.366-0.289-9.549c0-1.447,0.578-2.895,1.446-4.341   c0.868-1.447,2.315-2.315,3.763-2.894c2.604-1.446,5.497-2.314,8.681-2.604c3.279,0.097,6.559,0.193,9.838,0.29   C146.533,44.146,148.27,44.436,149.717,45.015L149.717,45.015z M91.842,40.385c-0.579,2.604-0.579,4.63,0.289,6.077   c0.29,0.868,0.579,1.157,1.158,1.446c1.158,0.29,2.604,0,4.051-0.868c1.446-0.868,3.472-2.025,5.498-4.051c0.097,0,0.192,0,0.289,0   c-1.736,4.918-4.63,7.523-8.97,8.102c-2.604,0.289-4.341-0.868-5.788-3.762c-1.447-3.183-1.447-6.367-0.29-10.128   c1.447-4.341,4.051-6.945,7.813-7.813c1.157-0.289,2.201-0.113,2.893,0.579c1.158,0.869,1.447,2.314,0.868,4.341   c-0.579,2.314-1.735,4.34-3.472,5.787c-0.868,0.868-2.025,1.447-2.894,1.447c-0.579,0-0.868-0.289-1.158-0.579   C92.035,40.771,91.938,40.578,91.842,40.385L91.842,40.385z M96.762,32.861c-0.333-0.211-0.938-0.045-1.447,0.579   c-1.157,1.157-2.025,2.894-2.894,5.498c0,0.096,0,0.192,0,0.289c0.096,0.386,0.193,0.772,0.289,1.158   c0.097-0.096,0.193-0.193,0.289-0.29c1.158-0.578,2.026-1.736,2.895-3.183C96.472,35.754,96.762,34.308,96.762,32.861   L96.762,32.861z M75.348,22.155c1.447,2.604,2.604,4.919,2.894,6.945c0.868,4.34,1.158,8.97,1.158,13.6c0,2.219,0,4.438,0,6.656   c0.097,0.868,0.193,1.736,0.29,2.604c0.096,0.29,0.192,0.579,0.289,0.868c0.097,0,0.193,0,0.29,0   c2.411-0.868,4.823-1.736,7.234-2.604c0.096,0.193,0.193,0.386,0.289,0.579c-1.254,1.158-2.507,2.315-3.762,3.472   c-1.447,1.447-3.183,2.025-4.63,2.314c-0.481-0.096-0.964-0.192-1.447-0.289c-1.157-0.868-2.025-2.315-2.894-4.34   c-0.289-1.833-0.578-3.665-0.868-5.498c0.096-3.762,0.193-7.523,0.289-11.286c0.194-3.183,0.387-6.366,0.579-9.549   C75.156,24.47,75.252,23.313,75.348,22.155L75.348,22.155z M31.075,95.365c-0.116,0.118-0.806,0.74-0.929,0.855   c-0.604,0.566-0.851,1.342-1.097,2.329c0.097,0.096,0.193,0.191,0.29,0.289c0.868-0.289,1.447-0.579,1.736-1.158   C31.364,96.812,31.364,96.233,31.075,95.365L31.075,95.365z M29.049,99.416c-0.29,1.447,0,2.025,0.868,2.314   c0.579-0.191,1.158-0.385,1.736-0.578c0.675-0.387,1.351-0.771,2.025-1.158c0.096,0.098,0.192,0.193,0.289,0.291   c-0.289,0.385-0.578,0.77-0.868,1.156c-1.157,1.447-2.314,2.025-3.472,1.736s-2.025-1.156-2.314-2.604   c-0.29-1.158-0.29-2.315,0-3.473c0.289-1.447,1.157-2.315,2.025-2.894c1.447-0.868,2.315-0.868,3.183,0   c0.578,0.868,0.525,2.001,0,3.183c-0.632,1.424-1.736,2.352-3.183,2.063C29.242,99.453,29.146,99.416,29.049,99.416L29.049,99.416z    M20.368,97.68c-0.868,0.29-1.447,1.158-1.736,2.605c-0.193,1.156-0.386,2.314-0.579,3.473c0,0.191,0,0.385,0,0.578   c0.096,0.096,0.192,0.191,0.289,0.289c0.097,0,0.193,0,0.29,0c0.597-0.236,1.033-0.953,1.446-1.736   c0.654-1.447,1.252-2.895,1.447-4.34c0-0.193,0-0.387,0-0.579C21.14,97.873,20.754,97.777,20.368,97.68L20.368,97.68z    M21.814,91.024c0-0.868,0.29-1.157,0.869-1.157s0.868,0.289,0.868,0.868c0.29,1.736,0.579,3.472,0.579,4.918   c-0.096,0.965-0.193,1.929-0.289,2.895c0.096,0.578,0.193,1.156,0.289,1.736c0.29,1.156,0.579,2.314,0.868,3.473   c-0.097,0-0.193,0-0.289,0c-0.386-0.967-0.772-1.93-1.158-2.895c-0.193,0.48-0.385,0.965-0.578,1.447   c-0.599,1.174-1.44,2.189-2.315,3.184c-1.158,1.445-2.315,1.445-3.473,0.578c-0.289-0.289-0.579-0.578-0.868-1.447   c-0.289-1.447,0.289-3.184,1.157-4.92c0.868-2.314,2.026-3.183,3.473-2.604c0.193,0.097,0.386,0.193,0.579,0.29   c0.097-0.579,0.193-1.159,0.289-1.737C21.814,94.11,21.814,92.567,21.814,91.024L21.814,91.024z M54.803,64.692   c4.148-1.157,8.296-2.314,12.443-3.473c0.096,0.193,0.193,0.386,0.289,0.579c-4.629,4.341-8.102,6.945-10.417,8.103   c-2.315,1.158-4.34,2.025-6.366,2.604c0.868,5.787,1.736,11.575,2.604,17.362c0.29,4.147,0.579,8.295,0.868,12.443   c0,4.629-0.29,8.68-0.868,12.152c-0.771,2.123-1.543,4.244-2.315,6.367c-0.192-0.098-0.385-0.193-0.579-0.289   c-0.965-4.438-1.929-8.875-2.894-13.313c-0.868-8.295-1.736-16.59-2.604-24.885c0-3.762,0.289-6.945,0.579-8.97   c-0.386,0.096-0.771,0.193-1.158,0.289c-7.234-0.385-14.468-0.771-21.703-1.157c6.752-1.929,13.504-3.858,20.256-5.788   L54.803,64.692L54.803,64.692z M44.386,106.361c-4.341,2.025-7.523,4.051-10.127,6.365c-3.473,3.184-5.499,7.234-6.077,12.443   c-0.096,0.867-0.193,1.736-0.29,2.604c2.412-0.289,4.823-0.578,7.234-0.867c2.604-0.096,5.209-0.193,7.813-0.289   c0,0.385,0,0.771,0,1.156c-2.508,1.641-5.016,3.281-7.524,4.92c-2.893,2.025-5.498,3.184-7.813,4.053   c0.096,0.77,0.193,1.541,0.289,2.314c0.29,4.918,1.736,12.152,3.762,21.123c0.868,3.375,1.736,6.752,2.604,10.129   c-0.193,0.096-0.386,0.191-0.579,0.289c-4.919-6.076-8.681-13.021-11.286-21.125c-1.157-3.182-2.025-6.365-2.604-9.549   c-0.096-0.482-0.192-0.965-0.289-1.447c-3.665,0.092-7.33,0.184-10.996,0.275c0-0.121,0-0.24,0-0.361   c1.736-1.129,3.473-2.258,5.209-3.385c1.929-1.256,3.858-2.51,5.787-3.764c0-2.604,0.289-5.209,1.158-7.813   c2.025-6.945,5.498-11.863,10.706-14.758C35.994,106.072,40.335,105.203,44.386,106.361L44.386,106.361z"
   id="path1929" />
</g>
</svg>